# xmcd CD database file
#
# Track frame offsets:
#	150
#	21832
#	43285
#
# Disc length: 862 seconds
#
# Revision: 2
# Processed by: cddbd v1.4PL0 Copyright (c) Steve Scherf et al.
# Submitted via: CDex 1.40Beta9
#
DISCID=21035c03
DTITLE=ayumi hamasaki - Trust
DYEAR=1998
DGENRE=Pop
TTITLE0=Trust
TTITLE1=Trust ~Acoustic Vesion~
TTITLE2=Trust ~Instrumental~
EXTD=YEAR: 1998 ID3G: 13
EXTT0=
EXTT1=
EXTT2=
PLAYORDER=
